<svg width="250" height="281" viewBox="0 0 250 281" fill="none" xmlns="http://www.w3.org/2000/svg">
<path d="M210.025 80.962C232.483 99.4381 240.768 135.453 232.242 167.305C223.656 199.157 198.311 226.852 163.664 245.316C129.018 263.735 85.132 273.002 55.8243 258.529C26.5165 244.057 11.9353 205.954 4.54728 168.568C-2.778 131.179 -2.89679 94.5578 16.6175 76.6842C36.1318 58.8708 75.233 59.7475 113.11 60.6241C151 61.555 187.627 62.4889 210.025 80.962Z" fill="#F1F1F1"/>
<path d="M191.672 269.426H184.386V273.866H191.672V269.426Z" fill="#E49D75"/>
<path d="M227.61 261.219L222.291 265.141L226.098 269.444L231.416 265.521L227.61 261.219Z" fill="#E49D75"/>
<path d="M196.52 88.0837H196.186C194.687 88.0837 193.471 89.1938 193.471 90.5631V91.8374C193.471 93.2067 194.687 94.3168 196.186 94.3168H196.52C198.019 94.3168 199.235 93.2067 199.235 91.8374V90.5631C199.235 89.1938 198.019 88.0837 196.52 88.0837Z" fill="#E49D75"/>
<path d="M198.773 181.79C199.763 183.863 207.352 225.454 208.467 229.389C209.583 233.323 227.424 258.972 228.638 260.505C229.011 262.723 223.501 266.473 220.887 266.473C218.274 264.587 187.752 224.21 187.019 222.417C186.287 220.625 183.829 177.729 198.773 181.79Z" fill="#832161"/>
<path d="M166.908 174.9C166.561 176.617 171.719 215.871 172.359 221.143C172.999 226.415 182.882 268.886 183.756 269.947C184.63 271.007 191.283 270.778 192.431 270.248C193.579 269.718 190.187 225.963 190.187 222.791C190.187 219.619 199.096 190.361 197.951 181.886C196.806 173.412 166.908 174.9 166.908 174.9Z" fill="#832161"/>
<path d="M192.197 127.317H185.231V138.385H192.197V127.317Z" fill="#E49D75"/>
<path d="M149.185 52.3787H38.7353C34.6495 52.3787 31.3374 55.4026 31.3374 59.1329V159.973C31.3374 163.703 34.6495 166.727 38.7353 166.727H149.185C153.271 166.727 156.583 163.703 156.583 159.973V59.1329C156.583 55.4026 153.271 52.3787 149.185 52.3787Z" fill="#832161" fill-opacity="0.81"/>
<path d="M101.789 104.481C103.507 103.041 104.71 101.161 105.238 99.0874C105.766 97.0133 105.596 94.8419 104.75 92.8576C103.904 90.8732 102.421 89.1684 100.496 87.9664C98.5708 86.7644 96.2928 86.1213 93.9604 86.1213C91.6281 86.1213 89.3501 86.7644 87.4248 87.9664C85.4995 89.1684 84.0167 90.8732 83.1706 92.8576C82.3245 94.8419 82.1545 97.0133 82.6829 99.0874C83.2113 101.161 84.4135 103.041 86.1319 104.481L77.2129 137.502H110.698L101.789 104.481Z" fill="white"/>
<path d="M53.752 52.3787C53.848 42.7003 58.1265 33.4481 65.6566 26.6352C73.1867 19.8223 83.359 16 93.9602 16C104.561 16 114.734 19.8223 122.264 26.6352C129.794 33.4481 134.072 42.7003 134.168 52.3787" stroke="#E0E0E0" stroke-width="32" stroke-linecap="round" stroke-linejoin="round"/>
<path d="M187.815 129.136C193.1 129.136 197.384 123.876 197.384 117.387C197.384 110.898 193.1 105.638 187.815 105.638C182.53 105.638 178.246 110.898 178.246 117.387C178.246 123.876 182.53 129.136 187.815 129.136Z" fill="#E49D75"/>
<path d="M186.511 136.104C174.91 136.104 164.568 165.489 166.555 175.241C167.142 178.121 194.906 183.932 199.149 183.119C200.657 181.245 206.811 136.104 186.511 136.104Z" fill="#FFD98E"/>
<path d="M183.535 152.472C188.729 149.031 180.427 132.36 178.486 132.073C174.913 131.546 166.027 137.797 166.307 140.424C166.456 141.81 178.245 155.975 183.535 152.472Z" fill="#FFE4AD"/>
<path d="M167.954 139.186C166.555 137.653 163.057 130.148 162.674 128.368C162.291 126.587 161.354 99.8267 161.354 98.2421C161.354 96.6575 159.044 92.6598 159.044 90.2739C159.044 87.8879 161.704 84.6524 163.057 84.6102C164.502 85.5471 166.508 91.0421 166.601 92.4429C167.106 89.4303 169.495 88.7375 170.148 88.7375C170.801 88.7375 170.715 93.3919 168.01 96.525C168.105 98.8266 171.309 121.623 171.827 122.942C172.345 124.262 178.245 132.911 178.232 133.676C178.219 134.441 167.954 139.186 167.954 139.186Z" fill="#E49D75"/>
<path d="M239.3 96.5923L122.223 81.9882L121.766 85.0416L238.843 99.6458L239.3 96.5923Z" fill="#A4A4A4"/>
<path d="M128.925 85.9334L121.766 85.0403L120.442 93.8844L127.602 94.7775L128.925 85.9334Z" fill="#A4A4A4"/>
<path d="M135.821 86.7951L131.97 86.3147L130.647 95.1588L134.498 95.6392L135.821 86.7951Z" fill="#A4A4A4"/>
<path d="M199.545 111.47C199.271 110.042 199.024 99.6943 199.446 98.2332C199.869 96.7721 201.01 95.7056 201.522 93.5245C201.697 92.7744 201.42 90.1775 200.862 90.0691C199.661 89.8341 199.592 91.0632 199.433 91.967C198.819 95.0489 197.569 94.4855 196.991 94.4132C196.414 94.3409 194.431 94.0276 193.781 94.0125C193.131 93.9975 194.787 95.2176 194.282 97.1667C193.886 98.7001 192.025 108.916 191.643 110.588C193.032 110.639 199.545 111.47 199.545 111.47Z" fill="#E49D75"/>
<path d="M142.394 87.6119L138.542 87.1315L137.219 95.9756L141.07 96.456L142.394 87.6119Z" fill="#A4A4A4"/>
<path d="M142.392 87.6144L121.766 85.0415L121.297 88.1756L141.923 90.7485L142.392 87.6144Z" fill="#A4A4A4"/>
<path d="M242.425 90.4065C240.709 90.1932 238.963 90.449 237.406 91.1415C235.85 91.8341 234.553 92.9323 233.68 94.2975C232.807 95.6627 232.397 97.2335 232.501 98.8114C232.606 100.389 233.22 101.904 234.267 103.163C235.314 104.422 236.746 105.369 238.383 105.886C240.019 106.402 241.787 106.464 243.462 106.063C245.136 105.663 246.644 104.818 247.793 103.635C248.942 102.453 249.682 100.986 249.918 99.4201C250.075 98.379 250.006 97.3197 249.714 96.303C249.423 95.2863 248.914 94.332 248.218 93.4948C247.522 92.6577 246.652 91.954 245.658 91.4241C244.664 90.8941 243.565 90.5484 242.425 90.4065ZM247.146 99.0647C246.987 100.131 246.484 101.131 245.702 101.937C244.92 102.743 243.894 103.319 242.753 103.593C241.612 103.866 240.408 103.825 239.293 103.473C238.179 103.122 237.203 102.477 236.49 101.619C235.777 100.762 235.358 99.7301 235.287 98.6553C235.216 97.5805 235.496 96.5107 236.091 95.581C236.686 94.6513 237.569 93.9036 238.63 93.4325C239.69 92.9613 240.88 92.7879 242.048 92.9341C243.615 93.1301 245.032 93.886 245.988 95.0356C246.944 96.1853 247.36 97.6345 247.146 99.0647Z" fill="#A4A4A4"/>
<path d="M168.046 96.5009C167.611 94.9434 166.763 93.5817 166.624 92.4098V92.446C166.532 91.0421 164.526 85.5472 163.08 84.6133C161.727 84.6555 159.068 87.891 159.068 90.2769C159.068 92.0272 160.322 94.6452 160.988 96.5401H168.033L168.046 96.5009Z" fill="#E49D75"/>
<path d="M179.193 110.027C179.193 114.091 182.334 116.598 187.313 117.996C187.313 123.557 188.254 123.801 188.254 127.187C188.254 134.483 186.891 130.835 186.891 143.434C186.891 151.032 190.375 155.165 196.79 155.165C204.548 155.165 208.999 147.673 208.999 143.636C208.999 138.514 203.449 129.615 203.059 122.225C202.522 112.284 199.136 103.966 190.646 103.966C183.393 103.966 179.193 106.43 179.193 110.027Z" fill="black"/>
<path d="M187.805 121.297C189.227 121.297 190.379 120.245 190.379 118.948C190.379 117.65 189.227 116.598 187.805 116.598C186.384 116.598 185.231 117.65 185.231 118.948C185.231 120.245 186.384 121.297 187.805 121.297Z" fill="#E49D75"/>
<path fill-rule="evenodd" clip-rule="evenodd" d="M231.404 264.657L235.528 269.796L226.899 280.943L218.756 280.991L218.861 277.222L222.131 275.903L225.038 269.353L231.404 264.657Z" fill="black"/>
<path d="M192.16 273.496V281H168V277.677L183.941 273.496H192.16Z" fill="black"/>
</svg>
