<svg width="40" height="40" viewBox="0 0 40 40" fill="none" xmlns="http://www.w3.org/2000/svg">
<circle cx="20" cy="20" r="19.8" fill="#832161" stroke="black" stroke-width="0.4"/>
<path d="M21.8923 15.0419V15.5888C21.8923 16.0188 21.4501 16.4344 20.8341 16.4344H19.0367C18.7742 16.4344 18.5072 16.3507 18.3096 16.1853C18.117 16.024 17.9786 15.776 17.9786 15.4155V15.0419H21.8923Z" fill="white" stroke="black" stroke-width="0.4"/>
<path d="M22.939 12.5834C22.466 12.8912 22.124 13.2918 21.9759 13.7457H17.883C17.743 13.286 17.4346 12.8954 17.0146 12.6349C15.5093 11.6878 14.8261 10.1572 15.2047 8.6286C15.577 7.13812 17.0464 5.89305 18.891 5.57489L18.891 5.57489L18.8919 5.57473C20.3617 5.31423 21.8613 5.61659 22.9942 6.38005C24.1334 7.14895 24.7681 8.27358 24.7681 9.46459C24.7681 10.6773 24.1069 11.8137 22.939 12.5834ZM21.8923 9.31522C21.8923 9.7037 22.2626 9.96333 22.6315 9.96333C23.0005 9.96333 23.3708 9.7037 23.3708 9.31522C23.3708 7.77359 21.8718 6.57591 20.1152 6.57591C19.7462 6.57591 19.376 6.83554 19.376 7.22402C19.376 7.61251 19.7462 7.87214 20.1152 7.87214C21.1338 7.87214 21.8923 8.55056 21.8923 9.31522Z" fill="white" stroke="black" stroke-width="0.4"/>
<rect x="19.0235" y="18.3132" width="1.95294" height="12.4302" rx="0.976471" fill="white" stroke="black" stroke-width="0.4"/>
</svg>
