<svg width="169" height="120" viewBox="0 0 169 120" fill="none" xmlns="http://www.w3.org/2000/svg">
<path d="M168.145 61.4633L77.7706 1.41954C76.6229 0.656973 75.3482 0.256626 74.0624 0.180367C73.9096 0.170836 73.7577 0.147536 73.6049 0.148594C72.1802 0.153891 70.7572 0.576479 69.4871 1.41954L0.460198 47.2796C0.384725 47.3293 0.319377 47.3908 0.261396 47.4596C0.25403 47.4681 0.249431 47.4797 0.242984 47.4893C0.177637 47.5708 0.127935 47.664 0.0883586 47.7636C0.0773129 47.7922 0.067187 47.8176 0.0579882 47.8473C0.0239312 47.9585 0 48.075 0 48.1978C0 48.201 0.00091989 48.2063 0.00091989 48.2105C0.00091989 48.2137 0 48.2169 0 48.2201C0 48.2328 0.00552636 48.2413 0.00552636 48.2518C0.0110457 48.3652 0 55.4539 0 55.4539C0 56.5861 0.528312 57.6399 1.38059 58.2065L91.7551 118.248C92.7482 118.908 93.8619 119.239 94.9765 119.239C96.0902 119.239 97.2039 118.908 98.1979 118.248L167.225 72.3893C168.077 71.8237 168.605 70.7688 168.605 69.6377V62.3795C168.605 62.0014 168.43 61.6529 168.145 61.4633Z" fill="#360726"/>
<path d="M70.408 3.25508C71.2842 2.67573 72.362 3.48597 72.2515 4.64253L71.7076 10.3766C71.6523 10.9581 72.0168 11.4813 72.5221 11.5448C72.5562 11.5491 72.5902 11.5512 72.6234 11.5512C73.0872 11.5512 73.4858 11.1487 73.5373 10.6064L74.1724 3.91809C74.2589 3.01254 75.0523 2.39613 75.7987 2.69904C76.1604 2.84519 76.5129 3.03054 76.8507 3.25508L161.584 59.5496C162.384 60.0813 162.081 61.4857 161.158 61.5248L74.1006 65.2455C72.1696 65.3165 70.3481 64.1335 69.4351 62.0481C68.9878 61.0249 68.858 59.8546 68.9666 58.7161L72.2313 24.3496C72.2874 23.7671 71.922 23.245 71.4167 23.1804C70.9031 23.1157 70.4567 23.5373 70.4015 24.1187L68.6344 42.7254C68.4834 44.312 67.3338 45.5236 65.9477 45.5564L8.07144 46.964C7.11975 46.9873 6.76724 45.5353 7.59192 44.9877L70.408 3.25508Z" fill="white"/>
<path d="M160.918 65.648C149.372 73.2991 110.094 99.3228 98.9733 106.595C97.7023 107.426 96.1404 106.298 96.2324 104.619L98.1846 69.1971C98.2738 67.5671 99.4216 66.2845 100.838 66.2231L160.416 63.678C161.376 63.6367 161.75 65.0961 160.918 65.648Z" fill="white"/>
<path d="M81.2069 100.315C81.2069 100.315 87.8558 104.659 91.6359 107.037C92.8186 107.781 94.2645 106.855 94.3492 105.308L96.2351 71.0834C96.3731 68.5807 94.6023 66.4899 92.4246 66.5821L74.1668 67.3627C74.0839 67.3658 74.0002 67.368 73.9173 67.368C71.2371 67.368 68.7245 65.56 67.5997 62.5267C67.1294 61.26 67.0052 59.8567 67.1349 58.4872L67.712 52.4195C67.9541 49.8765 66.1961 47.6693 63.9743 47.7244L7.52831 49.097C6.59687 49.1193 6.28117 50.5364 7.08744 51.0723L76.7945 97.3824C77.2602 97.6928 77.9671 97.9819 77.7747 98.9574L80.1042 100.502C80.3905 100.168 80.835 100.069 81.2069 100.315Z" fill="white"/>
<path d="M72.8909 17.4018L73.1174 15.0187C73.1726 14.4362 72.8081 13.9151 72.3028 13.8505C71.7984 13.7954 71.3428 14.2074 71.2876 14.7889L71.0612 17.1719C71.006 17.7544 71.3704 18.2766 71.8757 18.3401C71.9098 18.3444 71.9439 18.3454 71.977 18.3454C72.4409 18.3454 72.8394 17.944 72.8909 17.4018Z" fill="#360726"/>
<path d="M166.765 69.6366C166.765 70.0137 166.589 70.3653 166.305 70.5538C166.305 70.5538 111.632 106.782 98.6402 115.249C97.4124 116.048 95.8965 115.025 95.8965 113.403V113.752C95.8965 112.239 96.5987 110.84 97.7373 110.083L165.384 65.1322C165.998 64.7233 166.765 65.2338 166.765 66.0483V69.6366Z" fill="#D0D9EA"/>
<path d="M77.7154 99.218C77.4605 99.7243 76.8981 99.8979 76.4582 99.6056L3.22141 50.9484C2.60751 50.5407 1.84082 51.0512 1.84082 51.8667V55.455C1.84082 55.8321 2.01754 56.1837 2.30102 56.3722C2.30102 56.3722 76.044 105.267 91.3115 115.24C92.5062 116.02 93.965 115.066 94.0423 113.517C93.9705 112.101 93.2931 110.812 92.2181 110.096L80.287 102.151C79.8471 101.857 79.6961 101.21 79.9502 100.703H79.9511C79.9916 100.622 80.0505 100.565 80.1048 100.502L77.7753 98.9574C77.7578 99.0422 77.7467 99.1227 77.7154 99.218Z" fill="#E3E9F7"/>
</svg>
