<svg width="259" height="235" viewBox="0 0 259 235" fill="none" xmlns="http://www.w3.org/2000/svg">
<path d="M248.577 116.575C244.589 119.071 230.711 120.161 221.146 119.585V122.259L244.589 209.899H253.395L248.582 116.58L248.577 116.575Z" fill="#832161"/>
<path d="M230.036 153.131L221.653 168.458L219.556 120.832L232.918 121.289L230.036 153.131Z" fill="#832161"/>
<path d="M229.63 56.9093C227.531 53.8835 223.523 47.166 222.307 42.0682C220.747 35.5178 220.612 61.2411 220.612 61.2411L222.58 63.0406" stroke="black" stroke-width="2.5" stroke-linecap="round" stroke-linejoin="round"/>
<path d="M213.228 87.643C216.382 71.5397 223.191 55.0815 235.989 55.6625" stroke="black" stroke-width="2.5" stroke-linecap="round" stroke-linejoin="round"/>
<path d="M253.122 80.7662C254.694 96.2835 251.567 113.693 249.237 116.063C245.115 120.253 214.763 121.032 211.835 117.528C210.789 116.276 210.518 107.307 211.82 96.5688" stroke="black" stroke-width="2.5" stroke-linecap="round" stroke-linejoin="round"/>
<path d="M222.576 16.985H0V81.5347H222.576V16.985Z" fill="#832161" fill-opacity="0.69"/>
<path d="M201.237 92.6869C199.967 93.1702 198.321 93.2165 196.648 92.71C193.478 91.7486 191.409 89.1726 192.024 86.9566C192.639 84.7406 195.715 83.7174 198.875 84.6763C200.269 85.0709 201.529 85.8663 202.511 86.9721C209.094 86.9078 217.45 88.1161 222.573 88.9773V37.1246H0V208.722H222.576V99.155C213.129 97.5919 203.823 93.8515 201.237 92.6869Z" fill="#F3F3F3"/>
<path d="M242.44 57.4646C246.131 59.5855 248.727 63.4571 250.467 68.2413" stroke="black" stroke-width="2.5" stroke-linecap="round" stroke-linejoin="round"/>
<path d="M244.148 48.0837C244.148 48.0837 241.951 60.0173 241.702 61.7089C241.55 62.7372 237.933 62.7012 235.219 61.9814" stroke="black" stroke-width="2.5" stroke-linecap="round" stroke-linejoin="round"/>
<path d="M236.675 53.3306C236.251 53.3282 235.827 53.2861 235.41 53.2047C230.206 52.1764 227.086 45.2353 228.442 37.672C228.938 34.7218 230.147 31.9529 231.955 29.6281" stroke="black" stroke-width="2.5" stroke-linecap="round" stroke-linejoin="round"/>
<path d="M246.673 38.9114C247.143 39.0126 247.585 39.2274 247.962 39.5385C248.339 39.8496 248.641 40.2485 248.844 40.7033C249.047 41.1581 249.146 41.6562 249.133 42.158C249.119 42.6597 248.993 43.1512 248.765 43.5932C248.538 44.0352 248.214 44.4154 247.821 44.7037C247.428 44.9919 246.975 45.18 246.5 45.2532C246.024 45.3263 245.539 45.2824 245.083 45.1249C244.627 44.9673 244.212 44.7006 243.872 44.346" stroke="black" stroke-width="2.5" stroke-linecap="round" stroke-linejoin="round"/>
<path d="M211.82 96.5687C218.289 98.5482 226.429 100.35 233.122 99.7205C234.352 99.813 238.223 96.3785 240.428 94.1959" stroke="black" stroke-width="2.5" stroke-linecap="round" stroke-linejoin="round"/>
<path d="M230.853 84.6943C229.131 86.0075 227.738 87.735 226.791 89.7304C224.244 89.2497 211.662 86.882 202.511 86.972C201.528 85.8659 200.267 85.0704 198.872 84.6763C195.705 83.7174 192.637 84.738 192.022 86.9566C191.406 89.1751 193.476 91.7485 196.645 92.71C198.318 93.2241 199.965 93.1701 201.234 92.6868C204.69 94.1823 208.223 95.4782 211.815 96.5687" stroke="black" stroke-width="2.5" stroke-linecap="round" stroke-linejoin="round"/>
<path d="M136.544 70.3287H54.9146V208.721H166.554V101.682L136.544 70.3287Z" fill="#832161" fill-opacity="0.71"/>
<path d="M85.2295 136.747C92.3859 136.747 98.1873 130.686 98.1873 123.21C98.1873 115.733 92.3859 109.672 85.2295 109.672C78.0731 109.672 72.2717 115.733 72.2717 123.21C72.2717 130.686 78.0731 136.747 85.2295 136.747Z" fill="white"/>
<path d="M149.197 133.642H105.151V137.28H149.197V133.642Z" fill="white"/>
<path d="M149.199 149.91H72.2717V153.548H149.199V149.91Z" fill="white"/>
<path d="M149.199 166.175H72.2717V169.813H149.199V166.175Z" fill="white"/>
<path d="M142.912 11.6841C142.912 14.5942 134.339 37.1348 88.6917 37.1348C88.6917 41.9936 145.311 39.5436 145.311 39.5436L146.148 12.1545L142.912 11.6841Z" fill="#F3F3F3"/>
<path d="M242.598 69.303C246.579 67.4495 250.588 67.0665 253.208 70.1463C258.868 76.8097 244.965 95.9672 242.285 95.1754C239.128 94.2422 229.522 84.8486 229.446 81.5965" stroke="black" stroke-width="2.5" stroke-linecap="round" stroke-linejoin="round"/>
<path d="M250.152 41.3201C251.97 40.3689 253.597 31.8545 250.007 28.3556C246.503 24.9494 234.825 20.9852 230.3 16.309" stroke="black" stroke-width="2.5" stroke-linecap="round" stroke-linejoin="round"/>
<path d="M232.45 24.6254C231.409 23.5585 228.54 17.8437 228.149 16.3552" stroke="black" stroke-width="2.5" stroke-linecap="round" stroke-linejoin="round"/>
<path d="M228.594 26.0702C227.524 24.4429 226.99 21.849 226.842 20.1215" stroke="black" stroke-width="2.5" stroke-linecap="round" stroke-linejoin="round"/>
<path d="M235.947 38.3509C236.349 38.3509 236.675 37.9573 236.675 37.4717C236.675 36.9862 236.349 36.5925 235.947 36.5925C235.545 36.5925 235.219 36.9862 235.219 37.4717C235.219 37.9573 235.545 38.3509 235.947 38.3509Z" fill="black"/>
<path d="M232.994 35.942C232.831 36.8752 231.938 39.3714 230.609 41.4795" stroke="black" stroke-width="2.5" stroke-linecap="round" stroke-linejoin="round"/>
<path d="M233.375 45.855C233.757 45.8234 234.126 45.6929 234.448 45.4752C234.77 45.2575 235.034 44.9595 235.218 44.6082" stroke="black" stroke-width="2.5" stroke-linecap="round" stroke-linejoin="round"/>
<path d="M245.846 209.901V216.871L257 233L251.422 213.722V209.901" stroke="black" stroke-width="2.5" stroke-linecap="round" stroke-linejoin="round"/>
<path d="M216.537 5.37537H209.217C209.573 6.08252 209.759 6.86941 209.76 7.6685C209.76 10.7997 206.921 13.3371 203.417 13.3371C199.913 13.3371 197.076 10.7997 197.076 7.6685C197.077 6.86978 197.263 6.08318 197.617 5.37537H148.948C147.347 5.37605 145.812 6.04101 144.68 7.22405C143.548 8.40708 142.912 10.0113 142.912 11.6841V37.577C142.912 39.2497 143.548 40.8539 144.68 42.037C145.812 43.22 147.347 43.885 148.948 43.8856H216.537C218.138 43.8856 219.674 43.221 220.807 42.0379C221.939 40.8548 222.575 39.2501 222.575 37.577V11.6841C222.575 10.0109 221.939 8.40625 220.807 7.22314C219.674 6.04003 218.138 5.37537 216.537 5.37537Z" fill="#F3F3F3"/>
<path d="M203.417 13.3371C206.919 13.3371 209.758 10.7992 209.758 7.66857C209.758 4.53791 206.919 2 203.417 2C199.915 2 197.076 4.53791 197.076 7.66857C197.076 10.7992 199.915 13.3371 203.417 13.3371Z" stroke="black" stroke-width="2.5" stroke-linecap="round" stroke-linejoin="round"/>
</svg>
